<svg width="18" height="16" viewBox="0 0 18 16" fill="none" xmlns="http://www.w3.org/2000/svg">
<g clip-path="url(#clip0_61385:118)">
<path d="M8.62637 0.769104C3.86294 0.769104 0 4.08849 0 8.18326C0 11.4583 2.47176 14.2368 5.90118 15.218C6.33255 15.2863 6.49 15.0574 6.49 14.8608C6.49 14.6845 6.48245 14.2183 6.47814 13.5999C4.07863 14.0476 3.57176 12.6057 3.57176 12.6057C3.18029 11.7491 2.61412 11.5211 2.61412 11.5211C1.8301 11.0614 2.67235 11.0706 2.67235 11.0706C3.53833 11.1233 3.99343 11.835 3.99343 11.835C4.76343 12.9676 6.01333 12.6408 6.5051 12.4506C6.58275 11.9716 6.80598 11.6448 7.05294 11.4593C5.13765 11.2719 3.12314 10.6359 3.12314 7.79557C3.12314 6.98603 3.45961 6.32418 4.01176 5.80541C3.92225 5.61803 3.62676 4.86387 4.09588 3.84387C4.09588 3.84387 4.82059 3.64449 6.46843 4.60357C7.15647 4.43926 7.89412 4.3571 8.62853 4.35433C9.36078 4.35803 10.0995 4.43926 10.7886 4.60449C12.4354 3.64541 13.159 3.8448 13.159 3.8448C13.6292 4.86572 13.3337 5.61895 13.2453 5.80634C13.7985 6.3251 14.1318 6.98695 14.1318 7.79649C14.1318 10.6442 12.1151 11.2709 10.1933 11.4546C10.5028 11.6836 10.7789 12.1359 10.7789 12.8273C10.7789 13.8186 10.7681 14.618 10.7681 14.8608C10.7681 15.0593 10.9234 15.29 11.3613 15.2171C14.7853 14.2349 17.2549 11.4574 17.2549 8.18326C17.2549 4.08849 13.392 0.769104 8.62637 0.769104Z" fill="#C4C4CC"/>
</g>
<defs>
<clipPath id="clip0_61385:118">
<rect width="17.2549" height="14.7692" fill="white" transform="translate(0 0.615387)"/>
</clipPath>
</defs>
</svg>
